<svg width="200" height="200" viewBox="0 0 200 200" fill="none" xmlns="http://www.w3.org/2000/svg">
<path d="M0 100C0 44.7717 44.7717 0 100 0C155.228 0 200 44.7717 200 100C200 155.228 155.228 200 100 200C44.7717 200 0 155.228 0 100Z" fill="#333333"/>
<path d="M80 159.999C91.0458 159.999 100 151.045 100 140V120H80C68.9542 120 60 128.954 60 140C60 151.045 68.9542 159.999 80 159.999Z" fill="#0ACF83"/>
<path d="M60 100C60 88.9542 68.9542 80 80 80H100V120H80C68.9542 120 60 111.045 60 100Z" fill="#A259FF"/>
<path d="M60 60.0001C60 48.9542 68.9542 40 80 40H100V80.0001H80C68.9542 80.0001 60 71.0455 60 60.0001Z" fill="#F24E1E"/>
<path d="M100 40H120C131.046 40 140 48.9542 140 60.0001C140 71.0455 131.046 80.0001 120 80.0001H100V40Z" fill="#FF7262"/>
<path d="M140 100C140 111.045 131.046 120 120 120C108.954 120 100 111.045 100 100C100 88.9542 108.954 80 120 80C131.046 80 140 88.9542 140 100Z" fill="#1ABCFE"/>
</svg>
