<svg width="32" height="33" viewBox="0 0 32 33" fill="none" xmlns="http://www.w3.org/2000/svg">
<path d="M21.9042 8.4959C23.5863 9.06266 24.7814 10.6555 24.9308 12.5296M15.6226 31.4806C12.1954 29.2557 9.00702 26.6372 6.11467 23.6719C4.08122 21.5364 2.53317 18.933 1.5891 16.0611C-0.109773 10.4899 1.87462 4.11207 7.42808 2.22458C10.3468 1.23349 13.5344 1.79994 15.9938 3.74675C18.4542 1.80231 21.6407 1.23606 24.5596 2.22458C30.113 4.11207 32.1117 10.4899 30.4128 16.0611C29.4688 18.933 27.9207 21.5364 25.8873 23.6719C22.9949 26.6372 19.8066 29.2557 16.3793 31.4806L16.0081 31.7241L15.6226 31.4806Z" stroke="#200E32" stroke-width="1.5" stroke-linecap="round" stroke-linejoin="round"/>
</svg>
