<svg width="30" height="31" viewBox="0 0 30 31" fill="none" xmlns="http://www.w3.org/2000/svg">
<path d="M9.41993 0.638183C10.3649 0.668413 11.2799 0.84197 12.1664 1.1591H12.2549C12.3149 1.18908 12.3599 1.22222 12.3899 1.25219C12.7214 1.36422 13.0349 1.49044 13.3349 1.664L13.9049 1.93222C14.1299 2.05844 14.3999 2.29353 14.5499 2.38978C14.6999 2.48286 14.8649 2.57911 14.9999 2.68798C16.6663 1.34844 18.6898 0.622658 20.7748 0.638183C21.7213 0.638183 22.6663 0.778858 23.5648 1.09599C29.1012 2.98933 31.0962 9.37936 29.4297 14.9647C28.4847 17.8189 26.9397 20.4238 24.9163 22.5523C22.0198 25.5027 18.8413 28.1219 15.4199 30.3781L15.0449 30.6163L14.6549 30.3623C11.2214 28.1219 8.02494 25.5027 5.10147 22.5365C3.09149 20.4081 1.54501 17.8189 0.585019 14.9647C-1.10996 9.37936 0.885016 2.98933 6.48146 1.06286C6.91645 0.905081 7.36495 0.794636 7.81494 0.733102H7.99494C8.41644 0.668413 8.83493 0.638183 9.25493 0.638183H9.41993ZM22.7848 5.62423C22.1698 5.40177 21.4948 5.75046 21.2698 6.41313C21.0598 7.07579 21.3898 7.80158 22.0198 8.03666C22.9813 8.41533 23.6248 9.41091 23.6248 10.5138V10.5627C23.5963 10.924 23.6998 11.2727 23.9098 11.5409C24.1198 11.8091 24.4348 11.9653 24.7648 11.9985C25.3798 11.9811 25.9048 11.462 25.9498 10.7978V10.61C25.9948 8.39955 24.7213 6.39735 22.7848 5.62423Z" fill="#779452"/>
</svg>
