<svg width="40" height="41" viewBox="0 0 40 41" fill="none" xmlns="http://www.w3.org/2000/svg">
<path d="M21.9577 2.04846L26.4177 11.4541C26.7393 12.1383 27.3668 12.6144 28.0946 12.7266L38.085 14.2573C38.6724 14.344 39.2021 14.669 39.557 15.1605C39.9119 15.652 40.0627 16.2694 39.9761 16.8761C39.907 17.379 39.6815 17.8451 39.3338 18.204L32.0908 25.5809C31.5603 26.1024 31.319 26.8647 31.4486 27.6096L33.2326 37.9926C33.4296 39.2347 32.6417 40.4157 31.4486 40.6668C30.9603 40.7474 30.4598 40.6634 30.0214 40.427L21.1013 35.5398C20.4408 35.1886 19.6568 35.1886 18.9962 35.5398L10.0762 40.427C8.97746 41.0417 7.60478 40.6209 7.00772 39.4864C6.78149 39.0324 6.7003 38.5158 6.7758 38.0111L8.55981 27.628C8.68938 26.8832 8.44806 26.1209 7.91757 25.5994L0.674517 18.2224C0.249594 17.7892 0.010376 17.198 0.010376 16.581C0.010376 15.9641 0.249594 15.3729 0.674517 14.9397C1.01683 14.5733 1.47009 14.339 1.959 14.2757L11.9494 12.745C12.6773 12.6329 13.3047 12.1567 13.6264 11.4725L17.9258 2.04846C18.3018 1.2446 19.096 0.74047 19.9596 0.757498H20.2272C20.9787 0.85605 21.6304 1.34223 21.9577 2.04846Z" fill="#779452"/>
<path d="M20.0131 35.2634C19.6224 35.2607 19.2549 35.396 18.9073 35.5805L10.0155 40.4558C8.94901 41.021 7.59481 40.5668 7.00773 39.4867C6.78049 39.0396 6.69914 38.5286 6.77581 38.0298L8.55981 27.6651C8.67961 26.9154 8.44018 26.1523 7.91757 25.618L0.656677 18.241C-0.218892 17.3339 -0.218892 15.8653 0.656677 14.9582C0.999152 14.6023 1.44319 14.3696 1.92332 14.2943L11.9494 12.7451C12.722 12.6272 13.2743 12.1778 13.6264 11.4726L17.9819 1.94048C18.3138 1.16506 19.4298 0.629192 20.0309 0.757524C20.0131 1.38457 20.0131 34.8392 20.0131 35.2634Z" fill="#779452"/>
</svg>
