<svg width="42" height="42" viewBox="0 0 42 42" fill="none" xmlns="http://www.w3.org/2000/svg">
<path d="M22.5022 1.76885L27.3793 12.1067C27.6185 12.6263 28.0891 12.9895 28.6367 13.0771L39.5532 14.7407C39.9962 14.8044 40.3964 15.0494 40.6647 15.4214C40.933 15.7933 41.0473 16.2612 40.9821 16.7211C40.9272 17.0992 40.753 17.4475 40.4867 17.7113L32.5804 25.7915C32.1808 26.1897 32.0016 26.7707 32.1041 27.3362L34.0093 38.7237C34.1471 39.662 33.5373 40.5424 32.6375 40.7041C32.2665 40.7646 31.8867 40.7022 31.5516 40.5259L21.8163 35.1589C21.33 34.8806 20.7404 34.8806 20.2541 35.1589L10.4617 40.5655C9.64009 41.0038 8.63223 40.678 8.19455 39.8328C8.0239 39.4919 7.96376 39.1029 8.02308 38.7237L9.92823 27.3362C10.0204 26.7715 9.84275 26.1954 9.45194 25.7915L1.48844 17.7113C0.837187 17.025 0.837187 15.9221 1.48844 15.2358C1.75423 14.98 2.08467 14.8082 2.44101 14.7407L13.3575 13.0771C13.9025 12.9831 14.3706 12.6219 14.6149 12.1067L19.4921 1.76885C19.6848 1.34968 20.0321 1.02917 20.4554 0.880024C20.8787 0.730876 21.3419 0.765729 21.7401 0.976678C22.0686 1.14987 22.3356 1.42734 22.5022 1.76885Z" stroke="#200E32" stroke-width="1.5" stroke-linecap="round" stroke-linejoin="round"/>
</svg>
